<svg xmlns="http://www.w3.org/2000/svg" viewBox="0 0 186.026 57.113">
    <defs>
        <style>
            .white {
                fill: #FFFFFF;
            }
            .blue {
                fill: #0077C8;
            }
        </style>
    </defs>
    <title>UAH_logo</title>
    <path class="blue" d="M180.978,30.577l12.594,22.164s5.391,0.665,11.613,1.757,14.005,2.615,14.005,2.615L189.163,3.38,164.395,1.4l8.092,14.238-25.061-1.755L139.4,0l-26.647.024L94.575,31.411,69.4,33.956,87.893,1.417,63.125,3.4,33.164,57.113c14.287-2.977,27.47-4.7,38.267-5.913,17.148-1.929,37-2.481,37-2.481l17.642-29.428L143.709,48.7s7.922,0.22,11.286.444l13.4,0.892-12.3-21.2Z" transform="translate(-33.164)"/>
    <path class="blue" d="M126.077,32.35V32.309l-0.013.021-0.013-.021V32.35L117.98,45.884a28.728,28.728,0,0,1,8.084-1.582,28.749,28.749,0,0,1,8.085,1.582Z" transform="translate(-33.164)"/>
</svg>
